# AST/ASF file generated using VICON BodyLanguage
# -----------------------------------------------
:version 1.10
:name VICON
:units
  mass 1.0
  length 0.45
  angle deg
:documentation
   .ast/.asf automatically generated from VICON data using
   VICON BodyBuilder and BodyLanguage model FoxedUp or BRILLIANT.MOD
:root
   order TX TY TZ RX RY RZ
   axis XYZ
   position 0 0 0  
   orientation 0 0 0 
:bonedata
  begin
     id 1 
     name lhipjoint
     direction 0.734343 -0.627749 0.258209 
     length 2.5437 
     axis 0 0 0  XYZ
  end
  begin
     id 2 
     name lfemur
     direction 0.34202 -0.939693 0  
     length 6.7391  
     axis 0 0 20  XYZ
    dof rx ry rz
    limits (-160.0 20.0)
           (-70.0 70.0)
           (-60.0 70.0)
  end
  begin
     id 3 
     name ltibia
     direction 0.34202 -0.939693 0   
     length 7.21536   
     axis 0 0 20   XYZ
    dof rx
    limits (-10.0 170.0)
  end
  begin
     id 4 
     name lfoot
     direction 0.0489572 -0.134509 0.989702   
     length 1.61313   
     axis -90 7.62852e-016 20   XYZ
    dof rx rz
    limits (-45.0 90.0)
           (-70.0 20.0)
  end
  begin
     id 5 
     name ltoes
     direction 1.53451e-011 -4.21692e-011 1   
     length 0.823104   
     axis -90 7.62852e-016 20   XYZ
    dof rx
    limits (-90.0 20.0)
  end
  begin
     id 6 
     name rhipjoint
     direction -0.746398 -0.615468 0.253157   
     length 2.59446  
     axis 0 0 0  XYZ 
  end
  begin
     id 7 
     name rfemur
     direction -0.34202 -0.939693 0   
     length 6.7075   
     axis 0 0 -20   XYZ
    dof rx ry rz
    limits (-160.0 20.0)
           (-70.0 70.0)
           (-70.0 60.0)
  end
  begin
     id 8 
     name rtibia
     direction -0.34202 -0.939693 0   
     length 7.27262   
     axis 0 0 -20   XYZ
    dof rx
    limits (-10.0 170.0)
 end
 begin
     id 9 
     name rfoot
     direction -0.0455203 -0.125066 0.991104   
     length 1.91095  
     axis -90 -7.62852e-016 -20   XYZ
    dof rx rz
    limits (-45.0 90.0)
           (-20.0 70.0)
  end
  begin
     id 10 
     name rtoes
     direction -1.53601e-011 -4.21913e-011 1   
     length 0.969037   
     axis -90 -7.62852e-016 -20   XYZ
    dof rx
    limits (-90.0 20.0)
  end
  begin
     id 11 
     name lowerback
     direction 0.0181546 0.999122 -0.0377542   
     length 1.99916   
     axis 0 0 0   XYZ
    dof rx ry rz
    limits (-20.0 45.0)
           (-30.0 30.0)
           (-30.0 30.0)
  end
  begin
     id 12 
     name upperback
     direction 0.0203486 0.99589 0.0882534   
     length 1.951   
     axis 0 0 0   XYZ
    dof rx ry rz
    limits (-20.0 45.0)
           (-30.0 30.0)
           (-30.0 30.0)
  end
  begin
     id 13 
     name thorax
     direction 0.0131685 0.994241 0.106355   
     length 1.97461   
     axis 0 0 0   XYZ
    dof rx ry rz
    limits (-20.0 45.0)
           (-30.0 30.0)
           (-30.0 30.0)
  end
  begin
     id 14 
     name lowerneck
     direction -0.0281395 0.999325 0.023617   
     length 1.7959   
     axis 0 0 0   XYZ
    dof rx ry rz
    limits (-20.0 45.0)
           (-30.0 30.0)
           (-30.0 30.0)
  end
  begin
     id 15 
     name upperneck
     direction 0.0288721 0.991984 -0.123019   
     length 1.79917   
     axis 0 0 0   XYZ
    dof rx ry rz
    limits (-20.0 45.0)
           (-30.0 30.0)
           (-30.0 30.0)
  end
  begin
     id 16
     name head
     direction 0.0133797 0.998944 -0.0439492  
     length 1.80902  
     axis 0 0 0   XYZ
    dof rx ry rz
    limits (-20.0 45.0)
           (-30.0 30.0)
           (-30.0 30.0)
  end
  begin
     id 17 
     name lclavicle
     direction 0.919195 0.377107 0.113449  
     length 3.17815  
     axis 0 0 0   XYZ
    dof ry rz
    limits (-20.0 10.0)
           (0.0 20.0)
  end
  begin
     id 18 
     name lhumerus
     direction 1 -4.48959e-011 2.13129e-027   
     length 4.84137   
     axis 180 -30 -90   XYZ
    dof rx ry rz
    limits (-60.0 90.0)
           (-90.0 90.0)
           (-90.0 90.0)
  end
  begin
     id 19
     name lradius
     direction 1 -4.48957e-011 -6.30627e-028   
     length 3.2452   
     axis 180 -30 -90   XYZ
    dof rx
    limits (-10.0 170.0)
  end
  begin
     id 20
     name lwrist
     direction 1 -4.4901e-011 9.13299e-027   
     length 1.6226   
     axis -6.84618e-015 90 90   XYZ
    dof ry
    limits (-180.0 0.0)
 end
  begin
     id 21 
     name lhand
     direction 1 -4.48816e-011 1.82293e-026   
     length 0.521221   
     axis -1.16502e-014 90 90   XYZ
    dof rx rz
    limits (-90.0 90.0)
           (-45.0 45.0)
  end
  begin
     id 22 
     name lfingers
     direction 1 -4.49108e-011 3.65687e-026   
     length 0.420221   
     axis -2.33008e-014 90 90   XYZ
    dof rx
    limits (0.0 90.0)
  end
  begin
     id 23
     name lthumb
     direction 0.707107 -6.34943e-011 0.707107   
     length 0.603356   
     axis -90 45 5.69224e-014   XYZ
    dof rx rz
    limits (-45.0 45.0)
           (-45.0 45.0)
  end
  begin
     id 24 
     name rclavicle
     direction -0.90847 0.38596 0.160368   
     length 3.12973  
     axis 0 0 0   XYZ 
    dof ry rz
    limits (-10.0 20.0)
           (-20.0 0.0)
  end
  begin
     id 25 
     name rhumerus
     direction -1 -4.48974e-011 4.47268e-028  
     length 4.72284   
     axis 180 30 90   XYZ
    dof rx ry rz
    limits (-90.0 60.0)
           (-90.0 90.0)
           (-90.0 90.0)
  end
  begin
     id 26 
     name rradius
     direction -1 -4.48969e-011 3.43203e-027   
     length 3.23459   
     axis 180 30 90   XYZ
    dof rx
    limits (-10.0 170.0)
  end
  begin
     id 27 
     name rwrist
     direction -1 -4.48969e-011 9.12911e-027   
     length 1.6173   
     axis -6.84618e-015 -90 -90   XYZ
    dof ry
    limits (-180.0 0.0)
  end
  begin
     id 28
     name rhand
     direction -1 -4.49194e-011 1.83006e-026   
     length 0.307416   
     axis -1.16502e-014 -90 -90   XYZ
    dof rx rz
    limits (-90.0 90.0)
           (-45.0 45.0)
  end
  begin
     id 29
     name rfingers
     direction -1 -4.48423e-011 3.63103e-026   
     length 0.247847   
     axis -2.33008e-014 -90 -90   XYZ
    dof rx
    limits (0.0 90.0)
  end
  begin
     id 30
     name rthumb
     direction -0.707107 -6.34802e-011 0.707107   
     length 0.35586   
     axis -90 -45 -5.69224e-014   XYZ
    dof rx rz
    limits (-45.0 45.0)
           (-45.0 45.0)
  end
:hierarchy
  begin
    root lhipjoint rhipjoint lowerback
    lhipjoint lfemur
    lfemur ltibia
    ltibia lfoot
    lfoot ltoes
    rhipjoint rfemur
    rfemur rtibia
    rtibia rfoot
    rfoot rtoes
    lowerback upperback
    upperback thorax
    thorax lowerneck lclavicle rclavicle
    lowerneck upperneck
    upperneck head
    lclavicle lhumerus
    lhumerus lradius
    lradius lwrist
    lwrist lhand lthumb
    lhand lfingers
    rclavicle rhumerus
    rhumerus rradius
    rradius rwrist
    rwrist rhand rthumb
    rhand rfingers
  end

#!OML:ASF H:\Terrain\Patient Classification 1\Animal1\Tuesday\Animal1.ASF
:FULLY-SPECIFIED
:DEGREES
1590
root 12.1037 16.6471 -11.2977 -1065.01 -16.1045 -351.149
lowerback 24.9959 2.86618 -5.43296
upperback 2.52264 1.79687 -3.29355
thorax -11.2103 0.976049 -1.19773
lowerneck -10.1895 -1.65616 -8.45775
upperneck -9.74149 -1.15654 6.34169
head -1.28442 -0.351563 3.55774
rclavicle 3.67752e-014 -3.97569e-015
rhumerus -60.1287 12.7501 -104.869
rradius 42.9003
rwrist -70.9704
rhand 14.2593 -357.277
rfingers 7.12502
rthumb 39.1539 -22.753
lclavicle 3.67752e-014 -3.97569e-015
lhumerus -53.3347 3.07746 84.1625
lradius 38.797
lwrist 5.79676
lhand 49.9523 59.7089
lfingers 7.12502
lthumb 69.9203 55.6965
rfemur -55.2979 -4.82701 30.2306
rtibia 71.0119
rfoot 12.5158 2.25027
rtoes -13.2241
lfemur -41.737 -10.906 -14.5304
ltibia 42.5193
lfoot 12.4944 -3.79228
ltoes 2.76645
1591
root 12.0981 16.6573 -11.2065 -1064.11 -16.192 -350.927
lowerback 24.3761 2.61097 -5.3102
upperback 2.28932 1.53393 -3.36095
thorax -11.1334 0.851271 -1.23691
lowerneck -10.4042 -1.53678 -8.18104
upperneck -9.76114 -1.01896 6.06654
head -1.2677 -0.287733 3.40968
rclavicle -6.02318e-014 4.17448e-014
rhumerus -60.0485 12.9792 -105.383
rradius 42.5791
rwrist -70.7016
rhand 14.4467 -356.821
rfingers 7.12502
rthumb 39.3305 -22.2459
lclavicle -6.02318e-014 4.17448e-014
lhumerus -53.3946 2.90715 84.305
lradius 38.8358
lwrist 6.89493
lhand 48.6307 59.0173
lfingers 7.12502
lthumb 69.0308 57.6163
rfemur -57.3918 -4.11309 29.3434
rtibia 69.5245
rfoot 11.4167 1.62628
rtoes -10.2478
lfemur -42.3211 -11.4059 -14.5547
ltibia 42.2089
lfoot 12.3846 -3.11572
ltoes 1.99189
1592
root 12.0841 16.6949 -11.0849 -1064.09 -16.63 -351.078
lowerback 24.5206 2.61397 -4.91594
upperback 2.29119 1.6374 -3.30748
thorax -11.2012 0.881777 -1.44189
lowerneck -10.5257 -1.5545 -8.17119
upperneck -9.76287 -1.04253 5.92546
head -1.24686 -0.298158 3.35688
rclavicle -1.90833e-014 1.03368e-014
rhumerus -60.2203 13.3029 -105.749
rradius 42.6225
rwrist -70.8419
rhand 14.5138 -356.462
rfingers 7.12502
rthumb 39.3938 -21.8682
lclavicle -1.90833e-014 1.03368e-014
lhumerus -53.4095 2.61806 84.5538
lradius 38.814
lwrist 7.51086
lhand 48.3135 57.7534
lfingers 7.12502
lthumb 68.8109 56.9455
rfemur -57.8655 -3.05554 28.3865
rtibia 67.597
rfoot 10.8828 -0.09058
rtoes -4.6964
lfemur -41.5117 -12.108 -14.3643
ltibia 41.7623
lfoot 12.0936 -2.05842
ltoes 1.25476
1593
root 12.0647 16.7335 -10.9661 -1063.96 -17.0445 -351.022
lowerback 24.4323 2.61996 -4.77815
upperback 2.31078 1.69552 -3.25723
thorax -11.1294 0.902973 -1.47848
lowerneck -10.4745 -1.58363 -8.35669
upperneck -9.95329 -1.06682 5.90553
head -1.31698 -0.30348 3.3872
rclavicle 8.94531e-015 -7.55382e-015
rhumerus -60.4822 13.8467 -106.004
rradius 42.9347
rwrist -71.0777
rhand 14.6424 -356.441
rfingers 7.12502
rthumb 39.5149 -21.8115
lclavicle 8.94531e-015 -7.55382e-015
lhumerus -53.4127 2.2111 84.9284
lradius 38.7202
lwrist 7.79102
lhand 48.0002 57.6637
lfingers 7.12502
lthumb 68.5913 57.4292
rfemur -58.5454 -2.01952 27.2543
rtibia 65.4539
rfoot 10.9957 -2.60939
rtoes 1.57337
lfemur -40.7705 -12.7392 -14.4485
ltibia 41.1956
lfoot 11.9257 -1.27876
ltoes -1.3713
1594
root 12.0434 16.7751 -10.8449 -1064.03 -17.4443 -350.704
lowerback 24.4516 2.61483 -4.84022
upperback 2.35736 1.66763 -3.29146
thorax -11.0871 0.890927 -1.47098
lowerneck -10.1148 -1.58657 -8.44199
upperneck -10.3789 -1.08945 5.82522
head -1.51881 -0.31241 3.38163
rclavicle -2.42517e-014 2.34566e-014
rhumerus -60.7899 14.3527 -106.252
rradius 43.3027
rwrist -71.2858
rhand 14.9825 -356.583
rfingers 7.12502
rthumb 39.8351 -21.8586
lclavicle -2.42517e-014 2.34566e-014
lhumerus -53.5127 2.28488 85.118
lradius 38.5
lwrist 7.60393
lhand 47.9585 59.3725
lfingers 7.12502
lthumb 68.562 59.2133
rfemur -59.0528 -1.15586 25.9215
rtibia 63.027
rfoot 11.8109 -5.00309
rtoes 3.69811
lfemur -39.7669 -13.1495 -15.0344
ltibia 40.4595
lfoot 11.7018 -1.06192
ltoes -9.28736
1595
root 12.0194 16.8169 -10.7218 -1064.04 -17.68 -350.556
lowerback 24.4004 2.56303 -4.63699
upperback 2.44891 1.66091 -3.30462
thorax -10.9486 0.876679 -1.59272
lowerneck -9.96519 -1.66991 -8.45454
upperneck -10.582 -1.21397 5.7646
head -1.60289 -0.374638 3.36309
rclavicle 2.38542e-014 -1.15295e-014
rhumerus -61.0455 14.8136 -106.446
rradius 43.7372
rwrist -71.7914
rhand 15.1142 -357.035
rfingers 7.12502
rthumb 39.9592 -22.2733
lclavicle 2.38542e-014 -1.15295e-014
lhumerus -53.4342 2.26019 85.2568
lradius 38.2287
lwrist 7.53022
lhand 48.0094 59.4012
lfingers 7.12502
lthumb 68.5978 59.15
rfemur -59.2816 -0.29329 24.6811
rtibia 60.3631
rfoot 13.6324 -6.8073
rtoes 1.30949
lfemur -38.8393 -13.5318 -15.405
ltibia 39.6517
lfoot 11.7045 -0.805193
ltoes -16.8193
